<svg xmlns="http://www.w3.org/2000/svg" height="24" viewBox="0 -960 960 960" width="24"><path d="M699.078-135.846 447.077-389.078q-21.154 9.154-43.009 14.116-21.855 4.961-46.376 4.961-95.833 0-162.916-67.083T127.693-600q0-31 7.884-59.269 7.885-28.268 22.423-53.807l143.692 142.923L387.539-656 245.386-798.923q25.538-14.538 53.458-22.807 27.921-8.269 58.848-8.269 95.833 0 162.916 67.083T587.691-600q0 25.308-4.769 47.154-4.769 21.846-14.308 42.231l253.232 252.001q10.461 10.595 10.461 25.605t-10.376 25.386L749.3-134.992q-10.376 10.376-25.069 9.992-14.692-.385-25.153-10.846Zm25.538-59.999 36.616-36.616-266.385-266.385q16.846-20.769 24.846-47.269t8-53.885q0-66.539-47.539-117.77-47.539-51.231-120.31-50.231l86.693 86.694q10.847 10.846 10.847 25.307 0 14.461-10.847 25.307L327-511.155q-10.846 10.846-25.308 10.846-14.461 0-25.307-10.846l-86.694-86.693q.154 77.002 51.77 122.425 51.615 45.424 116.231 45.424 26.257 0 52.513-7.808 26.256-7.808 48.026-24.423l266.385 266.385ZM472-486.461Z"/></svg>